<?xml version="1.0" encoding="UTF-8"?><svg id="a" xmlns="http://www.w3.org/2000/svg" viewBox="0 0 982.74 946.4"><defs><style>.b{fill:#504e4f;}.b,.c,.d,.e,.f,.g,.h,.i,.j,.k,.l,.m,.n,.o,.p,.q,.r,.s,.t,.u,.v,.w,.x,.y,.z,.aa,.ab,.ac,.ad,.ae,.af,.ag,.ah,.ai,.aj,.ak,.al,.am,.an,.ao,.ap,.aq,.ar,.as,.at,.au,.av,.aw,.ax,.ay,.az,.ba,.bb,.bc,.bd,.be,.bf,.bg,.bh,.bi,.bj,.bk,.bl,.bm,.bn,.bo,.bp,.bq,.br,.bs,.bt{stroke-width:0px;}.c{fill:#fefdfd;}.d{fill:#d7d7d7;}.e{fill:#fcfbfc;}.f{fill:#fefdfc;}.g{fill:#dadadb;}.h{fill:#494747;}.i{fill:#f9fafa;}.j{fill:#f1f0f1;}.k{fill:#cbcbcb;}.l{fill:#f6f6f6;}.m{fill:#f8f8f8;}.n{fill:#cbcbcd;}.o{fill:#d3d3d3;}.p{fill:#c9c9c9;}.q{fill:#f2f0f1;}.r{fill:#cbcacb;}.s{fill:#464444;}.t{fill:#b1aeae;}.u{fill:#0a0b0c;}.v{fill:#403e3f;}.w{fill:#cccccd;}.x{fill:#fcfcfc;}.y{fill:#424242;}.z{fill:#cacaca;}.aa{fill:#c8c7c7;}.ab{fill:#cfcfcf;}.ac{fill:#4c4a4b;}.ad{fill:#4d4b4c;}.ae{fill:#4b494a;}.af{fill:#cdcdce;}.ag{fill:#464445;}.ah{fill:#d2d2d2;}.ai{fill:#c9c8c9;}.aj{fill:#969696;}.ak{fill:#d9d9d9;}.al{fill:#eeeded;}.am{fill:#0d0c0d;}.an{fill:#cbcccc;}.ao{fill:#f7f7f7;}.ap{fill:#4c4a4a;}.aq{fill:#0c0c0d;}.ar{fill:#d9d8da;}.as{fill:#403f3f;}.at{fill:#222323;}.au{fill:#484647;}.av{fill:#c8c8c8;}.aw{fill:#cdcdcd;}.ax{fill:#cdccce;}.ay{fill:#949494;}.az{fill:#4d4c4c;}.ba{fill:#cdcecf;}.bb{fill:#0b0b0c;}.bc{fill:#252526;}.bd{fill:#cccece;}.be{fill:#fff;}.bf{fill:#d1d1d1;}.bg{fill:#c9caca;}.bh{fill:#dcdddd;}.bi{fill:#ccc;}.bj{fill:#d8d8d8;}.bk{fill:#cecfcf;}.bl{fill:#474546;}.bm{fill:#cfcfd1;}.bn{fill:#b5b3b3;}.bo{fill:#a4a3a4;}.bp{fill:#d5d5d5;}.bq{fill:#c7c7c7;}.br{fill:#0d0d0e;}.bs{fill:#cbcccd;}.bt{fill:#fcfcfd;}</style></defs><path class="f" d="M385.97,44.91c-.85-1.43-3.97-.67-3.41-3.41.56-2.74,2.92-1.34,4.45-1.69,2.11-.48,4.31-.59,6.47-.86,2-1.92,4.52-1.64,6.86-1.3,23.85,3.54,46.21,10.96,65.6,25.8,4.49,3.44,8.79,7.17,9.84,12.11-.12-4.61.14-10.31-1.62-15.8-.3-.95-.34-2.12.65-2.72,1.16-.71,2.36-.2,3.4.48,2.77,1.82,4.57,4.5,6.29,7.24,2.56,4.06,4.37,8.54,7.02,13.32,2.79-4.5,4.38-9.08,7.21-12.9,1.8-2.42,3.48-4.96,5.76-6.97,1.32-1.16,2.8-3.01,4.63-1.94,1.98,1.15.67,3.27.31,4.96-.87,4.12-1.71,8.24-2.01,13.47,7.47-7.62,13.97-14.93,22.77-19.63,19.85-10.59,41.18-16.06,63.34-18.72,2.31-.28,4.89-.48,6.72,1.68.6,3.26-2.26,4.69-3.64,6.91-1.94,2.53-4.94,2.54-7.64,3.07-8.98,1.76-17.52,4.66-25.6,8.97-7.06,3.77-13.07,8.6-16.88,15.71,4.28-3.34,9.57-4.81,14.43-7.11,1.26-.59,2.77-1.01,4,.08,1.51,1.33.93,3.02.29,4.47-2.29,5.17-4.76,10.27-4.59,17.03,12.98-12.08,28.34-18.18,45.19-19.91,16.46-1.69,33.02-2.03,49.08,4.08-8.46,2.83-17.4,2.26-25.78,4.95-8.51,2.73-16.8,5.74-24.12,11.44,28.87-7.1,55.49-.18,81.25,12.46,9.78,4.8,19.7,9.32,28.42,15.99,1.92,1.47,3.94,2.82,5.79,4.38,1.68,1.41,4.25,3.12,3.08,5.3-1.32,2.44-4,.6-5.97-.08-21.91-7.54-39.12-8.39-55.5-2.65,15.13.81,30.04,2.68,43.93,9.32.36.17.75.32,1.09.53,1.63,1.04,4.59,1.34,4.31,3.59-.32,2.6-3.41,2.27-5.44,2.81-3.29.88-6.79.66-10.37,1.97,29.92,2.15,54.58,15.35,76.69,34.22.77.66,1.53,1.35,2.09,2.18.87,1.27,2.44,2.6,1.1,4.23-1.02,1.25-2.67.65-3.98.18-8.25-2.98-16.79-4.22-25.51-4.52-2.43-.08-4.82.35-7.82.74,25.27,4.49,46.27,16.26,64.76,32.87,3.3,2.97,5.79,6.71,8.85,9.93,1.31,1.38,3.29,3.32,1.44,5.17-1.54,1.54-3.35-.35-4.69-1.4-6.53-5.11-13.42-9.67-20.71-13.61-6.11-4.11-12.73-6.86-20.65-7.47,9.37,3.13,15.64,11.01,24.96,13.36,3.34,1.45,5.28,4.3,7.1,7.21,1.8,2.88,1.03,5.26-2.46,4.3-8.42-2.33-16.97-3.05-24.17-2.83,15.34,3.69,30.61,11.21,44.15,21.82,9,7.06,18.05,14.28,24.93,23.65,1.55,2.11,5.39,4.28,2.99,6.92-1.93,2.12-4.6-1.13-6.62-2.49-15.78-10.65-32.99-17.46-50.69-19.68-2.05-.11-1.29,1.17-1.44.37-.06-.33.08-.47.43-.42,7.84,1.11,14.06,5.8,20.68,9.52,9.17,5.16,17.35,11.75,25.3,18.61,1.67,1.44,3.36,2.96,3.49,5.43-2.35,4.06-5.02,1.19-6.94-.12-6.62-4.53-13.86-6.97-21.03-7.8,7.75,2.14,15.37,6.28,23.06,10.22,3.62,1.86,7.28,3.48,11.38,3.84,7.55,3.74,11.14,11.44,16.88,17,.83.8,1.19,2.2.2,3.3-.78.88-1.86.52-2.83.31-.79-.17-1.55-.48-2.26-.85-11-5.73-22.91-8.88-33.52-11.79,10.25,5.78,20.89,13.31,31.58,20.72,10.09,7,20.43,13.66,29.69,21.88,5.49,4.87,9.77,10.72,14.88,15.86,1.23,1.23,2.76,2.96,1.2,4.74-1.26,1.44-3.11.41-4.46-.31-11.04-5.92-22.91-9.99-30.33-13.54,20.76,12.7,42.41,30.56,58.01,54.92,1.37,2.14,4.63,5,1.89,7.31-2.08,1.75-4.65-1.42-6.62-2.94-11.19-8.66-23.15-15.84-36.77-20.02,18.11,15.32,34.36,32.29,47.22,52.37,5.24,8.18,9.64,16.78,13.44,25.7.79,1.86,1.93,4.21-.07,5.53-1.88,1.25-3.17-1.01-4.34-2.29-15.75-17.25-33.87-31.59-53.66-43.9-2.16-1.34-4.35-2.62-6.08-3.74.93,1.12,2.91,1.59,4.37,2.8.44.37,1.01.6,1.51.93,29.2,19.24,46.2,47.09,56.16,79.82,1.87,6.16,3.54,12.41,5.15,18.65.44,1.71,1.23,3.97-.91,4.8-1.84.72-2.66-1.44-3.35-2.77-3.35-6.47-8.58-11.71-11.87-18.22-6.08-20.71-17.92-37.61-31.43-48.69,4.57,5,10.94,13.59,15.89,23.16,1.36,2.63,2.92,5.74-1.5,7.4-7.32-3.18-12.08-9.58-16.88-13.32,9.98,9.32,17.62,22.3,25.21,35.32.72,1.23,1.22,2.54.82,4.02-.82,1.86-2.33,1.64-3.42.66-4.91-4.39-11.88-6.03-15.69-11.88,2.74,6.56,5.85,12.93,7.97,19.67.96,3.07,2.49,6.67-1.61,9.03-4.88-.8-6-5.5-8.79-8.47-1.69-4.36-5.57-7.27-7.52-11.21.46,1.54,1.73,2.82,2.8,4.22,4.88,6.4,4.97,6.92-.86,12.23-2.5,2.27-1.84,4.2-.24,6.27,3.1,4.02,5.29,8.55,7.72,12.97,6.76,12.3,6.31,25.61,5.8,38.95-.05,1.38-.2,3.22-1.76,3.53-2.25.45-3.01-1.74-3.74-3.26-5.44-11.29-12.54-21.62-18.68-32.5-2.89-5.11-6.87-9.46-8.65-13.08,11.42,19.32,19.65,41.69,23.23,65.72.59,3.99,1.35,7.95,1.8,11.96.28,2.52.29,4.95-2.92,5.71-3.88-1.49-4.52-5.4-6.1-8.5-4.82-9.45-10.65-18.14-18.28-25.63,2.97,8.63,7.96,16.52,8.38,25.91-2.07,9.02-5.36,17.68-7.97,26.53-.63,2.13-1.31,4.31-4.05,4.66-1.39-.35-2.29-1.3-3.04-2.43-3.98-6.31-6.77-13.22-9.72-19.25,5.37,27.2,9.67,55.18,5.78,83.72-.47,3.42.07,9.06-4.01,8.96-4.74-.11-3.06-5.71-3.07-8.98-.07-21.96-7.88-41.79-16.41-61.45-.8-1.84-1.81-3.6-2.54-5.48-.44-1.13-.84-2.27-.82-2.16,4.75,20.6,3.69,42.92,4.15,65.13.04,1.73.27,4.01-2.79,3.17-4.29-4.08-3.84-10.22-6.43-15.06-.65-1.21-.87-2.26-2.49-1.54-1.43-.57-2.26-1.72-2.66-3.11-3.55-12.21-9.25-23.56-14.04-34.69,1.32,9.65,3.03,19.84,2.66,30.2-.2,5.51,1.22,11.31-3.1,16.15-1.18,1.32-.44,3.51-.5,5.32.49,7.65-1.04,15.16-1.52,22.73-1.3,2.43-.14,7.26-4.17,6.9-3.9-.35-3.38-4.81-3.95-7.9-3.57-19.09-8.19-37.84-16.8-53.6,1.91,6.61,2.01,15.16,3.31,23.51,4.29,27.54-2.17,53.58-11.18,79.27-1.18,3.36-2.93,6.66-2.66,10.42-1.63,6.6-3.03,13.37-10.58,16.08-2.13-2.49-.69-5.07.07-7.44,11.39-35.1,6.32-80.02-2.95-108.74,1.31,19.47,3.2,41.97-5.07,63.8-1.01,2.67-1.31,6.72-5.98,6.13-2.12-3.05-1.56-6.56-1.46-9.88.39-13.07-1.53-25.82-4.78-38.42-1.78-7.19-4.12-14.19-7.31-20.99,1.48,13.67.59,27.24-1.3,40.77-2.46,17.59-8.43,34-16.97,49.5-1.37,2.48-2.82,6.7-6.18,5.32-3.07-1.27-.88-5.05-.2-7.61,12.1-45.71,10.97-90.91-4.95-135.59-2.98-8.35-7.59-16.09-9.62-24.78-.77-3.28-2.62-7.29,2.41-9.25,1.98-.24,3.52.74,4.88,1.98,8.82,8.06,18.9,14.22,27.76,18.69-11.33-7.46-21.26-19.11-31.11-30.83-1.06-1.27-2.84-3.15-1.06-4.7,1.64-1.43,3.36.31,4.76,1.41,25.64,20.02,55.21,29.42,88.01,32.77-15.49-8.55-29.67-17.37-41.69-29.26-.72-.71-1.49-1.38-2.09-2.18-1.15-1.52-3.45-3.06-1.86-5.08,1.31-1.67,3.39-.25,4.97.53,18.48,9.18,38.2,12.55,58.64,12.32,7.47-.08,14.82-1.53,22.54-2.78-19.46-.67-34.06-10.68-47.56-22.89-1.32-1.19-2.81-2.87-1.7-4.74,1.18-1.98,3.33-.97,4.97-.49,12.07,3.52,24.28,6.02,36.94,5.47,1.87-.08,4.51,1.08,5.4-1.26.69-1.83-1.59-3.03-2.77-4.33-7.3-8.07-14.18-16.56-22.98-23.14-.48-.36-.93-.8-1.27-1.3-.96-1.41-3.02-2.77-1.5-4.64,1.19-1.47,3.06-.45,4.49.2,12.84,5.87,26.47,9.88,39.23,16.64-3.78-8.74-7.37-17.54-12.69-25.42-9.17-13.57-19.29-26.38-32.06-36.85-.47-.38-.97-.75-1.33-1.23-.93-1.23-2.6-2.45-1.39-4.15.98-1.37,2.57-.57,3.91-.18.78.22-.17-.11.56.22,21.1,9.82,38.79,23.7,49.88,40.4-12.72-26.31-37.32-44.87-64.94-60.29-2.45-1.37-7.29-2.09-6.14-5.3,1.12-3.14,5.47-.94,8.21-.31,21.26,4.89,42.52,9.86,60.71,22.93,2.61,1.88,5.26,3.7,7.5,6.03-6.24-6.34-11.28-13.8-18-19.67-16.13-14.09-35.01-23.69-54.15-32.84-13.63-6.51-25.83-14.9-35.28-26.89-.5-.63-1.04-1.24-1.47-1.92-.88-1.36-2.11-2.94-.66-4.33,1.2-1.15,2.67.06,3.83.78,4.98,3.07,10.09,5.84,15.46,8.24,12.74,5.7,26.09,9.67,39.18,14.36,8.14,2.92,16.44,5.4,24.12,9.46-19.91-13.37-42.39-21.63-63.77-32.08-13.85-6.77-25.54-16.06-35.23-27.95-1.06-1.3-3-2.75-1.38-4.63,1.04-1.21,2.71-.32,3.9.42,14.42,8.96,30.87,12.76,46.61,18.35,3.41,1.21,6.8,2.47,10.29,3.43-4.4-1.28-7.76-4.44-11.7-6.56-8.53-4.59-17.06-9.16-25.75-13.43-1.95-.96-4.16-1.72-4.98-4.11,3.13-3.94,1.94-6.62-2.01-9.35-4.13-2.85-8.36-5.36-13.03-7.14-16.67-4.45-31.68-13.08-47.81-18.87-1.77-.63-4.6-1.19-4.08-3.53.5-2.19,3.35-2.11,5.26-1.76,7.64,1.39,15.58.21,22.99,2.84-14.91-10.57-31.56-15.66-49.87-15.42-4.68.06-9.19,1.29-13.8,1.77-1.8.19-4.11.55-4.75-1.51-.62-2,1.41-3.15,2.98-4.07,10.81-6.39,22.57-9.63,35.05-10.5,1.57-.11,3.2.41,5.23-.68-19.27-6.01-37.33-5.06-54.45,5.41-3.27,2-6.38,4.26-9.54,6.42-2.2,1.5-4.64,5.42-6.9,3.36-2.8-2.55.36-5.98,2.1-8.48,15.3-21.97,35.86-32.2,62.94-28.37,8.88,1.26,17.27,3.79,24.56,6.55-13.4-9.98-29.31-15.55-47.29-14.74-2.38.11-4.89.22-6.87-1.65-1.52-3.42-2.31-6.93-1.36-10.66,5.27-5.03,12.16-3.83,18.26-3.8,9.39.04,18.81,1.45,28.06,4.28-16.3-10.4-34.22-13.41-51.98-9.18-5.79,1.38-10.42,5.18-16.03,6.8-2.72.16-4.03-.87-2.49-3.54,1.73-3,4.08-5.51,7.19-7.18.71-.39-.44-.98.11-.39.07.08-.07.21-.41.42-12.72,7.52-20.97,19.2-28.84,31.2-1.44,2.19-2.61,4.55-4.18,6.66-.8,1.08-1.65,2.85-3.18,2.15-1.8-.82-1.29-2.77-.76-4.31,1.05-3.06,2.64-5.89,4.14-8.74,2.15-4.08,3.59-8.58,7.11-11.84-12.23,11.36-23.14,23.85-31.1,38.57-14.31,26.47-24.3,54.42-27.82,84.48-.61,5.21-1.24,10.39-1.21,15.65,0,1.89.32,4.61-2.25,4.94-2.32.3-3.1-2.16-3.99-3.96-.59-1.19-.69-2.56-1.38-3.88.66,2.15.42,4.17,0,6.14-1.72,7.92.66,14.55,4.11,21.86,2.65,5.61,6.75,6.95,10.97,9.31,16.83,9.44,30.18,22.75,42.12,37.65,17.29,21.59,32.62,44.51,46.97,68.15,10.07,16.58,18.82,33.76,26.67,51.45,1.48,4.08,4.74,7.72,3.15,12.57-5.07,2.43-5.35,6.4-4.49,11.46,1.58,9.2.96,18.45-1.09,27.58-.4,1.77-.91,3.51-1.78,5.12-.56,1.03-1.12,2.47-2.46,2.28-1.79-.26-1.79-2.02-1.75-3.37.09-3.21.59-6.4.61-9.63.03-6.1-1.02-11.96-3.19-17.39,2.18,16.14.08,31.68-8.17,46.19-1.24,2.18-3.05,3.7-5,5.13-3.74-1.19-1.88-3.61-1.21-5.71.36-1.15,1.14-2.11,1.76-3.14.6-1.01.6-2.18.75-2.5-4.44,9.9-11.89,18.25-20.23,25.14,1.99-1.17,4.56-2.58,6.83-4.47,2.5-2.08,4.38-4.66,6.27-7.27,1.11-1.52,2.04-3.8,4.69-2.16,1.83,1.21,3.42-3.13,5.14-.35,1.22,1.98-.05,3.93-1.1,5.62-8.31,13.35-20.37,22.68-33.75,30.25-7.48,4.23-15.45,7.64-23.87,9.94-12.59,3.44-25.01,3.09-37.42-.55-2.2-.65-4.94-.89-5.25-4.09.87-2.21,2.78-2.08,4.58-1.9,14.58,1.46,28.83-.11,38.87-3.42-24.77,5.03-50.6-1.94-74.41-18.14-1.83-1.25-3.55-2.66-5.56-3.65-1.51-.81-2.68-1.83-2.22-3.79,1.16-1.77,3.06-1.7,4.84-1.9,21.49-2.41,40.03-11.51,56.65-24.96,1.41-1.14,2.77-2.33,4.25-3.37.82-.58,1.64-1.16,2.08-1.29-11.09,7.66-23.43,7.35-36.12,3.04-.69-.42.11.2-.55-.26-2.76-1.93-7.3-3.62-6.2-7.23.96-3.17,5.42-1.11,8.24-1.02,9.43.27,18.45-1.18,27.18-4.82,24.58-10.26,30.29-30.35,22.47-53.64-3.74-11.15-10.16-20.55-18.35-27.53,1.17,1.51,3.18,3.67,4.18,6.55,1.05,3.05,2.47,5.97,3.5,9.03.58,1.71,1.47,3.87-.34,5-1.97,1.22-3.19-1.01-4.36-2.21-12.75-13.05-28.26-20.58-46.25-23.01-5.96-.8-11.93-1.52-18.05-.73-11.01,1.42-22.06.9-33.14.15-23.88-1.61-44.94,5.49-62.97,21.34-.76.67-1.42,1.44-2.19,2.08-1.05.89-2.15,2.27-3.64,1.32-1.33-.85-1.23-2.52-.83-3.89,1.62-5.57,3.56-11,6.37-14.44-9.76,9.21-17.05,21.31-19.85,36.21-3.62,19.2,6.63,35.29,23.54,43.13,8.2,3.8,16.82,5.53,25.84,5.4,2.83-.04,5.65-.09,8.47-.26,1.34-.08,3.06-.45,3.58,1.33.45,1.56-.78,2.63-1.84,3.55-1.38,1.19-3.01,2.02-4.56,2.97-13.36,5.78-26.21,4.86-34.85-.5,14.86,12.36,34.33,25.28,58.72,28.2.94.23,1.79.62,2.51,1.27,1.86,2.37-.11,3.47-1.49,4.95-8.09,8.68-18.43,13.52-29.36,17.31-16.71,5.79-33.78,6.67-49.07,3.94,11.02,3.57,24.29,4.8,37.89,2.8,2.64-.39,6.4-1.11,6.83,3.57-6.17,5.92-14.29,4.49-21.68,5.58-14.12,2.08-26.66-3.48-38.8-9.42-12.33-6.03-24.04-13.23-32.9-24.15-1.4-1.72-2.87-3.41-4-5.31-1.58-2.65-4.95-5.79-2.11-8.49,2.66-2.53,4.72,1.81,6.86,3.15,4.42,2.76,8.26,6.42,13.1,8.97-8.16-7.78-14.69-16.54-18.97-26.54,1.09,3.85,3.79,7.24,5.7,11.02.63,1.24,1.55,2.81.29,3.9-1.63,1.41-2.97-.11-4.08-1.21-7.45-7.39-11.54-16.56-12.79-26.77-1.13-9.19-1.43-18.5,1.04-27.62.22-.78-.96-.49-.16-.42.13.01.17.22.04.58-3.33,9.43-4.76,19.14-4.21,29.13.02.4,0,.81-.05,1.21-.23,1.77.01,4.36-1.94,4.66-2.55.39-2.9-2.4-3.26-4.23-2.13-10.97-2.58-22.06-1.02-33.09.7-4.93.14-8.64-4.34-11.21-.21-.57-.29-1.16-.26-1.76,9.17-21.03,17.43-42.51,29.79-62.01,16.85-26.56,33.91-52.98,54.74-76.7,11.41-13,24.5-23.95,40.36-31.23,1.77-.81,3.65-1.01,3.03-3.89-.32-1.48,1.11-2.96,2.08-4.24,5.6-7.36,5.29-15.57,3.88-24.65-1.55,2.26-2.06,4.23-3.21,5.85-.82,1.16-1.6,2.53-3.32,1.98-1.68-.54-1.82-2.13-1.61-3.52.91-6.06.35-12.03-.52-18.05-3.39-23.48-9.7-46.08-19.36-67.79-7.35-16.51-16.2-31.93-28.55-45.29-4.22-4.56-9.82-7.73-12-12.26,5.4,5.66,8.92,14.08,12.92,22.2.87,1.77,1.99,4.31-.18,5.44-2.31,1.22-3.41-1.42-4.35-3.07-3.59-6.33-7.75-12.27-12.07-18.11-7.16-9.67-15.55-17.94-26.45-22.86,1.19,1.23,3,2.16,4.52,3.45,1.71,1.44,3.23,3.05,4.56,4.83,1.12,1.5,3.17,2.98.84,5.11-1.48.48-2.78-.06-4.02-.77-20.54-11.68-40.85-9.46-61.01,1.04-2.46,1.28-4.96,2.52-7.28,3.71,14.72-4.45,29.45-8.26,45.01-4.14,4.69,3.17,6.72,7.38,5.16,13.02-1.4,1.41-3.25,1.65-5.05,1.56-19.9-1.03-37.83,4.38-51.56,15.17,20.66-8.66,43.61-12.45,66.68.55,10.84,6.11,18.91,14.94,24.92,25.74.49.88.93,1.79,1.19,2.77.31,1.17.74,2.5-.3,3.4-1.41,1.21-2.65,0-3.76-.75-1.85-1.24-3.29-2.97-4.9-4.49-17.17-16.19-42.05-20.44-65.12-12.23,11.29,1.06,21.76,2.02,31.6,6.16,3.74,1.58,7.36,3.29,10.73,5.54,1.64,1.09,4.21,2.22,3.46,4.36-.86,2.47-3.5,1.17-5.33.74-13.69-3.24-27.2-2.27-40.69,1.3-7.32,1.93-13.84,5.49-20.32,9.2-1.74,1-3.23,2.45-5.33,2.81,8.13-1.88,16.48-1.65,24.69-2.73,1.71-.22,3.92-.27,4.54,1.91.37,1.32-1.17,2.03-2.25,2.46-14.77,5.94-28.65,14.01-44.06,18.42-1.37.39-2.75.64-4.15.76-3.8,1.78-7.4,3.94-11.07,5.95-4.8,2.62-7.98,6.17-5.81,12.2-1.31,2.26-3.61,3.24-5.81,4.14-12.55,5.16-24.16,12.05-32.88,17.45,2.9-1.65,9.24-3.29,15.48-5.16,12.58-3.77,25.06-7.74,36.72-13.94,1.72-.92,3.97-3.37,5.77-.83,1.33,1.88-.91,3.62-2.12,5.19-10.66,13.77-24.81,22.71-40.39,29.97-13.16,6.13-26.75,11.36-39.57,18.23-6.86,3.68-13.62,7.54-19.1,10.33,6.67-4.35,15.91-6.64,24.87-9.52,18.23-5.85,36.9-10.58,53.01-21.64,1.46-1,3.44-2.27,4.91-.53,1.69,2-.12,3.8-1.41,5.28-8.53,9.86-18.33,18.16-29.96,24.16-6.63,3.43-13.29,6.82-20.04,10-22.27,10.5-42.65,23.42-55.44,41.91,8.44-7.68,21.05-13.07,34.22-17.02,11.78-3.53,23.79-6.29,35.74-9.24,1.88-.47,4.42-1.48,5.24.96.65,1.92-1.82,2.89-3.31,3.75-9.09,5.23-18.14,10.51-26.92,16.28-19.33,12.71-34.51,28.96-44.18,50.15-.43.66.87.33.07.18-.17-.03-.19-.23,0-.57,10.02-18.39,25.72-30.75,43.54-40.79,3.15-1.77,6.34-3.57,9.87-4.55,1-.28,2.13-.34,2.77.58.65.93.11,1.92-.43,2.79-.98,1.58-2.55,2.56-3.89,3.77-18.59,16.7-32.94,36.39-42.92,61.07,13.03-7.44,26.19-11.04,38.52-16.67.73-.34,1.43-.76,2.19-1.02,1.82-.62,4.07-2.28,5.37,0,1.02,1.79-1.07,3.2-2.42,4.36-7.81,6.73-14.7,14.4-22.07,21.58-2.57,2.51-4.91,5.22-6.96,9.01,10.49,1.41,20.17.26,29.79-1.81,4.93-1.06,9.79-2.42,14.68-3.67,1.35-.35,3.01-.84,3.89.56.87,1.39-.25,2.72-1.14,3.79-4.71,5.64-10.39,10.19-16.68,13.87-10.21,5.96-21.06,10.1-32.86,10.55,26.65,4.92,52.94,3.54,78.33-7.54,1.67-.73,3.32-1.53,5.23-1.12.9.3,1.53.87,1.81,1.79.17,2.35-1.49,3.58-2.98,4.94-11.95,10.97-25.45,19.72-39.25,27.74,32.69-2.5,61.09-13.18,87.22-32.86.8-.61,1.55-1.32,2.42-1.81,1.3-.74,2.65-2.49,4.18-.83,1.15,1.24.17,2.75-.71,3.82-10.88,13.24-22.71,25.48-33.67,33.49,6.45-3.39,15.61-9.37,24.2-16.23,1.83-1.46,3.51-3.54,6.37-2.56,4.1,3.51,3.15,7.94,2.13,12.3-1.47,6.32-4.82,11.93-6.95,18.03-15.99,45.89-16.98,92.3-5.21,139.22.45,1.79,2.06,4.18-.46,5.34-2.19,1.01-3.7-1.08-4.85-2.7-8.65-12.23-13.16-26.19-16.7-40.53-4.14-16.76-3.85-33.85-3.47-51.15-2.78,7.45-5.47,14.61-7.39,22.03-1.88,8.64-2.98,17.4-4.14,26.16-1.23,3.51-.66,7.18-.88,10.77-.11,1.78.07,4.2-1.9,4.65-2.48.57-3.12-2.05-3.92-3.79-4.24-9.25-6.58-19.06-7.2-29.15-.77-12.68.04-25.32,2.13-34.67-4.54,14.01-7.86,31.5-8.96,49.37-1.2,19.53-1.32,39,3.62,58.16.58,2.24,1.94,4.62-.41,6.72-5.48-.44-5.9-4.99-7.2-8.83-.73-8.95-4.65-17.04-7.21-25.46-8.18-26.94-9.16-54.28-6.12-81.98.42-3.83,1.45-7.51,2.74-10.39-8.74,15.89-13.28,33.83-16.36,52.23-.48,2.86-1.12,6.04-4.86,5.73-3.58-.29-3.15-3.59-3.41-6.13-.36-3.56-.08-7.25-2.42-10.34-1.32-1.98-1.22-4.16-.93-6.38.16-1.26.16-1.26-.52-1.76-1.95-1.01-2.1-2.91-2.13-4.69-.19-15.52-.81-31.06,2.3-46.42.27-1.33.6-2.62,1.52-4.1-6.21,12.4-10.46,25.24-16.09,37.48-1.03,2.24-1.02,4.74-1.87,6.99-1.39,3.66-2.71,1.49-3.96-.07-1.34,2.78-1.71,5.78-2.64,8.61-.66,2.01-.95,4.44-3.86,4.63-2.4-1.64-2.13-4.21-2.15-6.57-.18-20.76,1.61-41.38,4.03-61.47-1.34,4.88-4.39,9.58-6.5,14.72-7.89,19.15-13.31,38.82-13.39,59.71,0,1.01-.1,2.01-.31,3-.36,1.64-.98,3.38-2.77,3.58-2.14.24-2.41-1.85-2.74-3.33-1.14-5.11-2.27-10.26-2.47-15.5-1.02-26.87,1.39-53.38,8.64-79.01-2.52,6.67-6.95,12.75-9.85,19.58-1.56,2.8-1.63,6.82-5.95,7.4-1.28-.44-1.96-1.45-2.17-2.68-1.9-11.52-6.89-22.36-7.55-34.15.43-8.23,5.61-14.82,8.68-23.61-9.09,9.07-15.16,18.46-20.07,28.71-1.33,2.78-1.98,6.29-5.66,7.36-2.8-1.42-2.32-4.04-2.14-6.37,1.31-16.82,5.45-33.03,11.48-48.71,4.3-11.17,8.49-22.46,13.71-30.13-9.71,10.78-16.77,26.54-25.55,41.23-.62,1.04-1.18,2.12-1.85,3.12-.98,1.47-1.7,3.69-3.86,3.3-2.51-.46-2.38-2.94-2.56-4.91-1.5-16.05,2.17-30.85,11-44.33,2.57-3.92,4.5-7.43.22-11.66-1.96-1.93-.85-5-.27-7.56,1.55-3.23,4.28-5.56,6.23-8.14-1.89,2.12-3.92,4.47-5.74,7-.89,2.43-2.62,4.26-4.34,6.09-3.48,3.57-5.43,8.74-10.76,10.4-1.7-.73-1.81-2.2-1.17-3.51,3.79-7.78,4.84-16.53,8.66-24.3,1.03-2.1,2.45-3.93,4.48-6.62-2.95,3.35-4.41,6.49-6.83,8.91-1.88,1.88-3.94,3.67-6.83,2.94-3.29-.84-4-3.58-4.14-6.55,4.81-12.3,13.25-21.96,21.16-29.87-5.86,3.72-11.29,11.07-19.72,14.32-2.45-.79-1.56-2.58-.89-3.89,5.25-10.36,11.63-19.97,18.36-28.06-11.9,11.6-22.5,25.3-27.54,42.71-3.56,7.55-9.6,13.4-13.93,20.44-.74,1.2-1.99,2.59-3.39,2.02-1.92-.78-1.2-2.75-.84-4.27,8.88-36.72,24.01-69.71,54.81-92.23-18.34,10.19-34.42,24.6-48.79,41.03-1.14,1.31-2.54,3.38-4.42,1.97-1.71-1.29-.36-3.35.28-5,7.88-20.18,19.65-37.97,34.3-53.74,8.34-8.98,16.65-18.13,26.39-25.07-12.89,4.97-25.71,10.98-36.9,20.06-1.53,1.24-3.65,2.73-5.46,1.17-1.84-1.59.19-3.32,1.05-4.72,15.16-24.83,36.61-42.92,56.05-54.41-5.58,2.91-17.8,6.16-28.63,12.51-1.34.78-3.08,1.97-4.39.45-1.35-1.56.28-3,1.19-4.22,7.64-10.27,16.73-19.14,27.07-26.6,14.88-10.73,30.12-20.96,45.71-30.66,1.44-.89,3.15-1.18,4.06-1.84-11.26,2.73-22.81,6.2-33.84,11.24-1.4.64-3.21,1.52-4.39-.17-.96-1.36.2-2.76,1.04-3.81,3.99-5.01,7.07-10.86,12.94-14.17,11.6-4.85,22.53-11.27,33.44-14.62-4.82.92-10.57,2.91-16.16,5.5-2.11.98-4.68,3.22-6.65-.45-.04-2.27,1.37-3.78,2.91-5.07,13.67-11.43,28.34-21.14,45.49-26.63-6.83,2.35-14.19,2.42-21.07,4.86-6.85,2.43-13.61,5.02-20.1,8.31-3.97,2.01-7.53,4.67-11.34,6.94-1.37.82-3.09,2.01-4.44.8-1.79-1.61-.22-3.49.81-4.79,6.29-7.91,13.36-15.22,21.16-21.5,11.96-9.62,25.15-17.48,39.87-22.38,2.63-.88,5.26-1.85,7.64-1.82-7.43-.68-15.15.42-22.81,2.3-1.51.37-3.39.99-4.52-.53-1.19-1.6.24-3.06,1.11-4.31,2.42-3.48,4.94-6.9,8.98-8.73,8.52-1.87,14.28-8.98,22.37-11.66-6.2,1.81-12.68,2.87-18.01,6.9-7.24,3.98-14.68,7.63-21.14,12.92-1.49,1.22-3.7,3.09-5.29,1.23-1.56-1.82.7-3.64,1.93-5.14,18.89-23,43.2-36.39,72.41-40.85-11.77-1.55-23.3.27-34.66,3.76-1.66.51-3.82,1.61-4.88-.48-.77-1.51.68-3.06,1.91-4.13,22.78-19.78,48.27-33.62,79.03-35.79.4-.03.81.02,1.97.09-2.72-1.25-4.95-1.43-7.14-1.8-2.19-.37-4.38-.73-6.57-1.1-1.53-.26-3.67-.26-3.83-2.19-.15-1.78,1.8-2.5,3.24-3.19,6.03-2.86,12.19-5.36,18.74-6.8,9.44-2.08,18.97-3.35,29.92-3.25-19.61-5.89-37.7-4.58-55.68,1.58-2.63.9-6.2,4-8.03.75-1.4-2.48,2.63-4.56,4.79-6.12,27.63-20.01,57.56-34.02,92.42-34.91,7.46-.19,14.62,2,22.31,2.93-10.67-7.55-22.4-11.49-34.79-13.79-2.15-.4-4.48-.17-6.35-1.66-.81-1.41-.03-2.37.91-3.3,1.92-1.22,4.12-1.82,6.3-1.92,19.17-.94,38.25-1.16,56.52,6.29,8.14,3.32,15.33,7.94,21.67,14.48.11-5.74-2.12-10.49-4.06-15.34-.85-2.13-3.06-4.57-.92-6.62,1.96-1.87,4.59-.1,6.85.56,4.47,1.3,8.3,3.94,13.23,6.92-6.6-10.65-15.54-16.43-25.78-20.42-6.01-2.34-12.32-3.73-18.69-4.84-2.71-.47-5.7-.45-7.63-2.99Z"/><path class="u" d="M761.13,809.11c3.94-4.64,6.56-10.05,9.02-15.54.68-6.72,4.4-12.41,6.46-18.67,2.59-7.88,4.22-15.93,5.94-23.99.25-1.19.49-2.38.88-3.51.52-1.5,1.02-3.6,2.9-3.33,1.77.26,2,2.4,2.03,3.98.37,20.96,1.07,41.96-5.45,61.61,9.28-14.54,16.15-30.86,18.24-48.82.99-8.55,1.76-17.1,3.57-25.53.52-7.98,1.03-15.96,1.55-23.94,1.16-.98-.58-3.9,1.92-3.63,1.99.22,2.32,2.62,2.68,4.33,3.51,16.43,6.15,32.93,3.4,49.79-.07.41.04.73.35.94-.35-2.72.67-5.26,1.51-7.8,5.34-16.17,9.49-32.55,8.78-49.8-.11-2.56-.41-5.31,1.64-7.45.28-2.24,1.12-3.26,2.17-.47,2.01,5.34,3.69,10.81,5.5,16.23,2.38,2.77,2.55,6.18,3,9.59,2.38,17.86.78,35.4-4,52.7-.66,2.39-1.21,4.95-2.69,5.81,3.26-4.66,7.03-10.2,10.5-15.89,11.35-18.66,21.81-37.69,25.55-59.66,2.75-16.18,2.05-32.07-2.23-47.9-.65-2.42-3.28-5.64,1.11-7.52.45.77.9,1.54,1.34,2.32,4.98,2.4,6.58,7.51,8.93,11.79,6.37,11.58,11.09,23.76,11.16,36.72-.82-5.51.77-11.45,1-17.46.65-16.5-2.73-32.4-7.22-48.13-1.37-4.81-2.91-9.59-2.92-14.67-1.62-9.72-7.16-18.1-9.34-27.8,13.15,9.06,19.14,23.2,26.24,36.53,2.67,1.84,3.73,4.76,4.7,7.59,7.23,21.06,8.54,42.55,4.86,63.53,7.01-16.9,10.61-35.4,10.31-54.65-.11-6.89-1.52-13.61-2.58-20.39-.3-1.93-1.13-4.45,1.06-5.47,2.18-1.01,3.64,1.16,4.88,2.69,3.55,4.37,6.59,9.02,7.15,13.65-1.64-5.78-.73-12.94-1.84-19.94-4.4-27.63-11.82-54.34-23.26-79.89-2.59-5.79-2.74-5.73-.68-8.53,2.43,2.76,4.86,5.51,7.28,8.27,10.19,7.68,16.66,18.34,22.99,29.05,2.42,4.1,4.88,8.29,5.24,11.76.68,2.16,1.42,1.1.75,1.55-.12.08-.25-.08-.37-.48-3.51-11.96-4.29-24.51-8.22-36.4-2.51-7.61-6.6-14.63-8.15-22.57-7.74-15.21-16.95-29.41-28.88-41.85,7.84,3.79,13.78,9.94,20.31,15.32,8.36,3.75,13.62,10.62,18.21,18.15,4.54,7.07,10.34,13.3,14.24,22.06-8.24-42.56-26.26-78.03-61.22-103.39-.44-1.09-.21-1.56,1.02-1.12,22.25,11.95,40.94,28.28,58.74,48.19-13.41-36.93-38.34-63.23-66.09-87.51,18.26,4.77,33.97,13.96,48.32,25.82-15.53-29.42-41.05-48.5-68.09-66.2,14.63,4.69,28.94,10.25,42.63,17.58-21.47-28.74-53.17-44.48-82.02-64.78,5.4-.36,9.95,1.57,14.55,2.9,5,1.44,9.95,3.14,14.81,5.02,4.59,1.78,9.02,3.94,13.8,5.61-5.32-6.44-10.28-13.13-16.75-18.47-2.97-1.86-5.95-3.72-7.21-7.28-14.36-15.24-31.95-25.76-50.75-34.6,22.65.89,42.08,9.88,60.09,22.76-19.65-25.23-43.96-43.73-77.15-51.77,12.15-3.78,22.29-1.18,33.67,2.54-3.82-4.23-5.97-7.88-9.38-10.44-2.97-2.13-5.07-4.64-3.71-8.63,8.93,4.22,16.78,10.12,24.79,15.83-9.45-13.18-21.78-23.12-35.63-31.31-13.87-8.21-29.15-12.56-44.83-15.93,14.82-3.8,29.12-2.05,43.27,3.11-23.76-22.43-50.99-37.29-85.48-38.75,7-4.87,14.15-4.39,21.69-5.47-17.59-9.53-35.87-12.5-54.99-12.26,9.33-9.74,34.22-9.27,67.99,1.57-17.91-15.97-37.84-25.44-58.8-33.01-21.52-7.78-43.42-9.45-65.81-3.35,15.04-13.62,33.23-18.19,52.7-18.7-27.23-7.03-69.82-5.52-94.41,19.68.02-9.22,1.89-17.28,6.82-24.88-7.79,2.74-15.58,5.26-23.2,12.09,3.19-8.67,7.75-14.13,13.67-18.57,12.13-9.09,26.34-12.45,40.92-14.79,15.91-.11,31.78-.2,47.3,4.35,18.12,5.31,34.83,13.42,50.31,24.17,2.28,1.58,4.57,3.14,7.01,4.82,8.2-20.02,19.45-37.06,38.13-49.38-.42,4.18-3.8,6.18-4.71,10.98,20.65-23.8,45.31-37.38,77.29-39.66-7.78,4.86-14.07,9.37-19.18,15.69,25.81-15.08,52.55-17.09,80.24-6.65-12.65,1.46-25.3,2.61-36.38,10.17,30.67-5.63,58.35.2,82.45,20.48-11.78-1.81-23.43-4.51-36.93-2.73,37.31,10.9,63.03,33.61,79.74,67.18-10.9-6.28-21.47-13.19-35.23-16.1,29.49,18.38,53.03,39.53,56.09,75.79-6.78-8.61-12.88-17.79-21.87-24.5,6.59,10.97,11.93,22.72,12.65,35.26,1.24,21.67,7.94,43.56-1.38,65.15-3.43,7.94-7.2,15.48-13.5,22.67-.64-5.45,1.35-9.9,0-15.88-4.95,16.9-13.49,29.97-25.88,40.64,7.41-1.75,14.29-4.54,22.01-9.55-14.02,22.07-33.58,33.33-56.68,40.51,5.32,6.86,10.54,13.46,15.62,20.15,9.79,12.89,17.48,27.03,24.01,41.79,2.78,6.28,2.55,6.42-4.28,6.27-1.95-.04-3.91,0-6.87,0,20.51,23.72,35.81,49.14,40.05,80.37-3.78.12-5.4-3.96-9.31-3.62,10.97,15.75,16.78,32.72,15.83,53.01-5.51-7.08-10.7-12.8-16.72-17.96,10.58,25.39,6.89,51.98,6.96,78.17.04,14.37,1.41,28.85-1.4,43.89-3.37-6.28-6.42-11.95-9.47-17.63,2.02,38.78-5.24,75.39-20.89,111.64-2.02-4.1-3.6-7.32-6.02-12.24-4.62,33.62-18.5,60.57-44.24,81.94,2.95-11.4,6.54-21.92,5.84-34.67-8.09,25.5-19.51,47.29-38.49,64.58,2.08-6.09,5.9-11.52,7.23-19.44-17.08,28.14-37.79,50.74-66.42,66.86,5.67-10.76,9.5-21.34,12.54-32.29-19.53,30.98-46.82,52.55-80.74,67.52,6.54-11.07,11.01-22.24,15.5-33.5-23.75,30.16-54.58,49.04-91.86,59.26,4.95-9.31,9.49-17.88,14.04-26.45-25.51,24.99-56.09,38.47-91.7,43.66,6.29-6.46,9.64-13.9,13.72-21.08-9.27,6.74-17.95,14.2-28.38,19.14-10.63,5.04-21.72,7.77-33.93,8.67,3.61-7.65,6.91-14.64,10.65-22.57-9.28,6.28-17.82,11.73-25.99,17.68-7.89,5.75-15.14,6.31-23.34.29-8.09-5.94-16.85-10.98-25.73-18.79,3.3,9.19,6.28,16.68,11.17,23.46-18.65.39-36.96-8.17-65.49-30.79,5.19,8.81,9.13,17.08,16.57,24.37-36.36-5.86-67.18-19.98-92.5-47.16,4.44,10.42,8.7,19.98,14.58,28.92-23.56-4.71-65.57-25.06-91.78-57.65,3.48,11.06,7.93,21.71,14.92,33.16-34.16-17.3-63.07-38.12-83.07-71.85,4.03,13.04,7.58,24.54,13.55,35.21-13.64-7.5-25.21-17.3-35.87-28.16-10.53-10.72-20.2-22.19-28.08-35.14,1.16,7.01,5.09,12.79,7.58,19.21-20.2-17.71-31.79-40.67-40.42-67-1.1,12.62,3.1,23.09,5.66,35.28-25.32-22.69-39.94-49.51-45.09-81.73-1.29,3.46-2.58,6.91-4.4,11.78-17.95-36.06-22.5-73.36-21.06-112.92-2.11,3.6-3.9,6.41-5.45,9.35-1.47,2.8-2.69,5.73-4.35,9.32-2.1-8.34-1.72-16.04-1.84-23.7-.21-13.68-.46-27.37-.71-41.05-.36-19.57.57-38.96,9.05-58.8-7.74,5.91-12.91,11.96-18.11,19.46-1.53-20.35,5.28-37.06,16.45-53.41-3.72,1.13-5.74,3.66-9.23,3.91,4-30.98,19.07-56.38,39.5-80.06h-13.6c9.19-26.01,24.71-47.47,42.76-68.09-23.14-7.16-42.15-19.19-55.28-39.4,6.23,2.91,12.04,6.67,20,8.15-12.84-10.9-20.46-23.89-25.78-40.47,0,3.66-.07,5.62.02,7.58.09,2.19,1.46,4.23.63,7.13-5.51-4.04-8.66-9.59-11.29-15.29-8.87-19.22-10.11-39.27-4.63-59.52,1-3.69-1.4-5.89-.85-9.18,2.1-12.47,6.09-24.14,12.64-34.95.72-1.2,1.46-2.38,2.17-3.59.06-.1-.14-.34-.41-.95-8.73,7.79-16.4,16.21-22.11,26.96-2.2-21.85,14.8-54.08,55.68-76.6-7.66.07-20.58,6.1-34.47,16.09,4.1-22.91,34.9-49.69,78.44-67.68-12.86-1.44-24.2,1.51-35.74,2.82,24.53-20.59,52.5-26.4,84.08-19.3-11.66-9.04-25.21-9.64-38.48-11.49C137.73-.78,164.83-.29,190.69,16.34c-4.55-6.52-11-10.95-18.92-16.34,31.05,2.58,54.81,15.59,74.47,37.68.32-3.47-2.54-5.49-2.6-8.97,9.98,6.55,18.07,14.4,24.64,23.82,4.84,6.94,9.14,14.23,12.47,22.01,1.36,3.19,2.28,3.78,5.36,1.43,19.36-14.75,41.09-24.23,65.01-28.95,11.58-2.28,23.2-2.01,34.85-2.12,13.98,1.83,27.62,4.8,39.59,12.75,6.88,4.57,12.5,10.35,16.14,19.72-8.17-5.52-15.41-9.76-24.4-11.62,4.59,8,8.18,15.74,7.58,24.7-.48.09-1.04.33-1.17.19-13.79-15.52-32.08-20.8-51.8-22.26-11.02-.81-22.14-1.03-33.12,1.08-2.35,1.17-4.77,2.02-7.73,1.51,2.32.81,4.59-.88,6.57.6,17.12,1.04,32.34,6.97,45.85,18.13-48.23-11.59-86.94,8.81-123.84,35.41,22.41-8.13,44.75-10.89,67.4-.98-19.3.64-38.1,3.01-56.25,12.75,8.36.82,15.92.94,23.84,5.93-35.77.68-63.78,15.77-88.44,38.52,14.71-5.06,29.6-6.88,45.19-2.99-33.03,4.28-59.94,19.16-80.15,45.77,8.18-5.91,16.46-11.62,25.81-15.5,1.7-.52,1.59.64,1.27,1.57-.88,2.6-2.94,4.16-5.19,5.52-4.08,3.34-7.03,7.66-10.68,12.39,10.62-3,20.68-5.49,32.25-2.08-31.49,8.06-55.33,25.5-74.24,50.32,17.83-12.22,37.19-20.03,59.04-21.07-18.01,8.46-35.72,17.33-49.73,31.91-1.91,5.31-6.76,7.77-10.74,11.07-5.95,4.57-9.85,10.89-14.38,16.87,13.63-6.38,27.66-11.14,43.5-13.56-29.99,20.04-61.67,36.14-83.2,65.31,13.46-7.53,27.9-12.57,42.5-17.45-26.83,16.45-50.55,36.05-66.55,64.11,14.1-10.94,29.57-19.21,46.85-24.09-28.1,23.95-52.78,50.4-65.46,87.01,16.92-19.97,35.23-36.87,58.94-47.16-34.27,24.85-51.39,59.81-60.05,100.52,5.78-8.05,11.24-15.64,16.7-23.24,2.45-4.87,5.98-8.65,11-10.92,8.2-6.1,15.43-13.55,24.88-18.04-9.3,10.54-18.86,20.79-25.13,33.52-.96,4.35-2.73,8.36-4.75,12.32-5.82,11.4-9.31,23.6-11.96,36.06-1.44,6.78-2.3,13.68-4.17,20.38.16.85,1.1-.24.33.03-.32.11-.44-.03-.37-.43,2.16-10.86,9.05-19.23,14.98-28.05,2.88-4.28,5.48-9.05,10.7-11.18,3.26-3.58,6.53-7.16,9.79-10.74,2.27,2.5.81,4.85-.26,7.24-12.26,27.18-20.22,55.59-24.27,85.11-.75,5.49.53,11.2-1.31,15.65.78-5.55,4.35-10.75,8.31-15.73.98-1.23,2.07-3.08,3.75-2.52,2.16.71,1.72,3.04,1.38,4.74-1.75,8.98-1.33,18.05-1.52,27.12-.49,23.53,4.33,33.72,10.13,52.24-3.6-10.69-3.2-21.77-2.61-32.74.64-11.71,3.18-23.15,7.51-34.12.82-2.07,1.67-4.13,3.68-5.39,5.97-12.24,12.01-24.45,21.74-34.31,1.12-1.13,2.27-2.24,3.47-3.28.25-.22.76-.12,1.86-.27-.89,9.08-7.59,15.88-8.85,24.5-2.05,13.92-7.8,26.93-9.73,40.95-2.08,15.12-1.87,30.02.92,45.25-1.9-6.06-.21-11.63.93-17.22,1.99-9.8,5.98-18.77,11.5-27.07,1.25-1.88,2.62-3.58,4.87-4.3,2-1.87,2.94-4.34,3.86-6.83,3.33.86,2.04,3.38,1.5,5.13-11.29,36.56-2.05,69.89,16,101.8,4.33,7.66,9.09,15.08,14.22,22.11-2.36-7.67-4.17-15.58-4.39-23.58-.33-11.63-1.14-23.34.82-34.94.33-1.95.18-4.07,1.85-5.58,1.66-5.58,3.33-11.17,4.99-16.75,3.52,1.41,1.91,4.86,2.22,7.06,2.64,19.2,5.42,38.33,11.82,54.45-1.1-8.34.28-18.76,2-29.12.69-4.17,1.25-8.38,2.27-12.49.54-2.17,1.3-4.26,3.32-5.58.07-.19.1-.42.23-.54.18-.18.44-.29.67-.43.19,3.15.39,6.29.58,9.44,2.31,5.9,2.39,12.2,2.68,18.34,1.17,24.31,6.09,47.46,19.59,68.19.43.66.73,1.42.79,3.46-5.39-20.16-5.75-39.58-5.5-59.06.02-1.41.26-2.86,1.17-4,1.49-1.87,2.92-2.03,4.03.41.17.37.33.74.4,1.14,3.1,16.7,9.61,32.33,15.22,48.24,1.59,2.76,3.17,5.52,4.76,8.28,2.39.97,3.65,3.1,5.07,5.03,10.36,14.09,22.52,26.24,37.45,35-14.25-24.35-22.85-51.05-26.41-79.27-.93-7.4.48-15.14.94-22.71.49-8.95,2.53-17.68,3.87-26.5,4.13.98,2.63,4.46,2.66,6.83.12,10.29.1,20.54,1.97,30.74,3.66,20,11.78,37.99,23.22,54.72,13.02,19.04,27.19,36.97,45.79,50.81-5.83-10.25-10.81-20.96-14-32.45-.75-2.72-1.55-5.44-1.91-8.25-.25-1.91-1.45-4.65.81-5.45,2.28-.8,3.18,1.94,3.95,3.76,3.28,7.76,9.75,13.26,13.81,19.38-6.06-14.63-8.7-30.95-10.62-47.43-.16-1.4-.38-3.18,1.24-3.64,1.59-.45,2.48,1.18,3.08,2.41,2.67,5.44,4.75,11.13,6.93,16.77,5.69,14.71,12.16,28.99,21.69,41.73,8.65,11.57,19.11,21.12,31.99,29.81-4.64-11.69-6.43-22.97-8.03-34.28-.14-1-.44-1.98-.48-2.99-.08-2.19-.73-5.19,1.61-5.96,2.64-.87,3.37,2.29,4.31,4.1,8.16,15.71,18.35,29.88,31.39,41.94,2.49,2.3,4.98,4.56,8.13,6.4-6.89-10.59-11.34-22-14.94-33.77-.56-1.82-1.95-4.24.26-5.49,2.06-1.16,3.64,1.05,5.07,2.37,5.16,4.79,9.29,10.51,14.81,15.07,18.48,15.27,38.75,26.84,62.28,32.24.98.23,1.94.54,3.71,1.51-5.49-6.39-10.12-12.29-14.72-18.2-1.42-1.83-4.39-3.88-2.45-6.08,1.85-2.1,4.44.5,6.41,1.58,6.36,3.5,12.67,7.07,19.44,9.8,3.28,1.32,6.13,1.33,9.24-.29,6.26-3.26,12.65-6.28,18.9-9.57,1.56-.82,3.49-2.34,4.96-.78,1.57,1.66-.31,3.37-1.29,4.76-4.42,6.26-9.71,11.83-14.98,18.15,31.7-7.52,57.81-23.22,79.01-47.14.67-.76,1.28-1.56,1.99-2.28,1.16-1.16,2.48-2.54,4.16-1.51,1.45.89.76,2.58.34,3.89-3.96,12.29-7.96,24.56-14.6,35.43,16.47-11.45,27-28.2,37.2-45.22,1.5-2.5,2.71-6.91,5.93-5.76,3.28,1.17,1.07,5.36.7,8.1-1.55,11.38-3.29,22.75-7.47,34.11,7.4-4.97,13.2-11.08,19.64-16.41,1.95-1.77,3.79-3.65,5.56-5.6,12.98-13.77,20.61-30.63,27.76-47.78,2.25-5.39,4.33-10.86,6.6-16.23.64-1.52,1.17-4.06,3.39-3.42,1.96.57,1.86,3.01,1.55,4.76-1.47,8.33-2.61,16.73-4.46,24.99-1.45,6.48-3.16,12.92-5.66,19.21,4.61-5.94,9.53-11.56,13.25-18.08.84-1.47,1.74-3.84,3.78-3.03,1.98.79,1.28,3.17.86,4.89-3.52,14.58-8.45,28.6-17.12,42.04,27.88-21.31,47.83-47.95,62.19-78.68,8.29-17.74,10.9-36.96,9.7-56.59-.18-3.02-.33-6.06.1-9.05.2-1.41.07-3.43,2.53-3.21,4.03,16.24,6.09,32.68,4.94,49.44,1.49,5.32-.39,10.42-1.42,15.44-4.73,23.04-12.25,45.12-24.2,66.17,13.27-8.81,24.91-18.77,34.62-30.91,1.51-1.89,2.89-3.91,5.32-4.77Z"/><path class="am" d="M600.27,38.02c-35.77,2.78-69.43,10.39-93.96,40.62-.66-7.69-.07-15.2,2.99-22.6-8.65,6.88-13.17,16.37-17.62,26.76-4.39-9.49-7.99-19.08-16.39-25.62,2.53,6.9,2.73,13.8,1.71,20.34-21.56-26.34-51.27-35.16-83.5-38.58-3.37-1.87-7.13-.6-10.69-1.87,22.92-9.48,46.5-9.83,70.45-4.65-.49-1.35-1.68-2.14-2.92-2.8-1.03-.55-2.38-.59-2.91-2.38,15.41,1.27,29.18,6.73,41.93,14.81,2.29,1.45,3.14,1.66,5.42,0,12.7-9.2,27.24-13.38,42.83-15.04-1.26,2.66-4.49,1.99-6.1,4.62,4.85.67,9.07-1.31,13.44-1.69,18.37-1.6,36.51-.93,54.12,5.22,2.67.93,2.65,1,1.22,2.84Z"/><path class="av" d="M741.87,713.75c-2.32,1.15-1.1,3.25-.96,4.73,4.36,44.62-13.42,81.2-41.34,114.1-8.88,10.46-18.27,20.42-29.42,28.56-1.89,1.38-3.55,3.17-6.86,3.63,10.49-15.52,16.71-32.16,20.2-49.91-5.4,9.47-12.04,17.91-20,25.51,6.66-17.04,9.46-34.84,11.2-52.98-4.44,10.54-8.77,21.13-13.34,31.62-5.81,13.33-12.77,25.95-23.63,36-1.61-2.94.5-5.19,1.84-7.15,10.71-15.6,18.53-32.49,23.49-50.73.19-.7-.09-1.68.46-1.87-6.41,23.15-19.06,43.69-30.59,64.78-6.56,7.7-14.57,13.65-24.09,20.4,6.38-15.89,8.14-31.27,10.6-48.28-13.35,22.2-25.5,43.43-48.48,57.79,9.29-14.43,14.12-29.02,18.49-44-11.43,13.27-24.2,24.87-39.3,33.74-15.17,8.91-31.16,15.69-49.22,19.1,7.1-8.59,13.78-16.68,21.34-25.82-9.62,4.76-18.04,8.83-26.36,13.11-2.74,1.41-4.9,1.35-7.82,0-8.71-4.02-17.12-8.54-26.95-14.41,7.76,9.77,14.4,18.13,21.64,27.23-36.57-7.53-65.57-25.74-89.81-54.56,4.18,16.8,10.68,30.83,19.94,45.55-23.45-14.2-36.08-35.09-48.37-57.12-1.04,5.54.76,10.4,1.41,15.29.71,5.37,1.83,10.71,3.16,15.97,1.27,5.01,3.03,9.89,4.63,15.01-36.41-20.93-52.1-56.18-66.11-92.89.77,5.94,1.3,11.91,2.36,17.79,1.13,6.33,2.62,12.61,4.19,18.85,1.5,5.96,3.34,11.83,5.53,17.67-8.05-7.95-15.47-16.26-20.06-26.77.37,5.88,1.86,11.42,3.55,16.96,1.71,5.61,3.95,10.99,6.46,16.24,2.59,5.42,5.56,10.65,8.98,17.14-7.35-4.8-13.34-9.46-18.68-14.84-22.04-22.23-40.93-46.67-51.47-76.59-5.75-16.31-7.44-33.27-6.72-50.52.08-1.96,1.45-4.42-1.09-5.99,2.79-9.38,5.37-18.85,10.92-27.45-2.09,35.5,1.19,69.65,22.72,99.55-8.89-27.88-9.43-56.63-8.03-85.33,1.14-23.56,6.86-46.39,16.11-68.22,1.41-3.33,2.83-6.69,3.76-10.17.94-3.52,1.33-7.21-1.81-10.13-1.02-2.15.51-3.53,1.73-4.7,19.86-19.05,33.63-42.73,49.3-64.94,14.88-21.09,30.14-41.95,43.11-64.31,11.6-20.01,17.22-42.08,21.42-64.57,2.41-12.91,3.35-26.09,3.36-39.1,0-24.87-7.07-47.64-24.08-66.74-5.81-6.52-12.71-11.71-18.89-17.75-1.25-4.47,1.83-7.58,3.5-11.14.73-.89,4.03.49,2.09-2.87-1.86-3.21-4.98-5.75-5.48-9.72-2.64-7.22-9.59-10.31-14.78-15.25,7.47-.32,19.1,7.57,27.56,17.82,7.15,8.67,13.36,17.95,19.46,27.4-3.99-11.48-9.33-22.21-17.99-32.2,34.17,21.67,68.44,89.3,67.83,151.58,3.51-3.2,3.87-7.83,6.82-12.41,2.47,11.83,4.35,22.28-3.77,31.66-1.79,2.07-3.4,4.32,2.44,4.74-23.88,8.85-40.26,25.01-55.17,43.29-17.86,21.88-33.16,45.48-48.01,69.39-9.88,15.91-17.65,32.91-24.33,50.41-1.11,2.91-1.94,6.13-4.66,8.2-3.32-5.31.92-9.38,1.79-13.31-2.97,6.28-8.28,11.86-13.36,17.43-13.32,14.58-16.44,32.04-14.99,50.66,2.77,35.44,20.03,62.71,48.31,83.56,21.16,15.6,45.22,23.12,71.07,24.35,16.54.78,33.01-2.31,48.95-6.77,22.36-6.26,44.46-6.45,66.83-.29,15.19,4.19,30.81,7.24,46.51,7.05,23.95-.29,46.69-6.33,67.18-19.3,32.05-20.3,51.38-48.88,55.74-86.91,2.59-22.6-3.22-42.41-20.63-57.9-3-2.67-4.5-6.86-8.63-8.31-4.05-3.27-4.44-8.42-6.45-12.72-11.18-23.96-25.27-46.2-39.88-68.15-10.93-16.42-22.41-32.46-35.61-47.14-12.76-14.18-26.98-26.58-45.39-32.88-.09-1.88,5.06-.65,1.8-3.85-10.35-10.19-5.55-22.26-4.21-33.96,2.08,3.67,1.88,8.3,5.16,11.5,4.82-57.35,21.38-108.95,66.65-147.58-6.73,8.42-10.2,18.55-14.11,28.53,3.54-5.54,6.81-11.28,10.69-16.57,3.92-5.34,8.25-10.42,12.75-15.29,4.65-5.03,10.35-8.59,18.51-11.29-3.98,5.32-8.91,7.21-11.63,11.33-.66,1-2.64,2.19.38,2.65.26,5.16-4.91,7.34-6.39,12.05,2.33-.92,4.41-2.84,6.95-1.43,4.42,4.51,1.23,8.9-.22,13.33-1,2.14-3.04,3.17-4.76,4.54-22.3,17.67-35.57,40.32-37.59,68.97-3.25,46.23,6.23,89.51,32.03,128.36,22.63,34.08,45.29,68.18,70.18,100.69,3.43,4.48,7.07,8.79,10.9,12.95,1.46,1.58,3.41,2.99,2.91,5.62-2.8.07-2.96,1.5-2.74,4.02.65,7.24,4.3,13.37,6.83,19.89,7.35,18.97,13.42,38.2,15.34,58.62,2.4,25.61,1.31,50.99-3.86,76.17-1.18,5.76-3.13,11.36-4.14,17.18,20.58-30.69,25.24-64.99,22.77-101.12,5.23,8.16,7.8,17.08,10.39,26Z"/><path class="aq" d="M697.28,612.99c-31.92-34.96-55.55-75.94-82.87-114.24-15.29-21.43-25.1-45.37-30.41-71.11-4.98-24.19-7.71-48.58-3.12-73.15,4.55-24.37,17.15-43.96,36.7-59.14,1.89-1.47,3.77-2.95,5.66-4.42,6.8-6.5,14.68-10.26,24.3-9.58,21.14-1.77,40.28,3.24,56.86,16.85.75.61,1.44,1.29,1.73,2.87-4.36-1.47-8.69-3-13.08-4.39-23.1-7.34-45.21-7.38-64.98,9.06-7.44,6.19-13.52,13.44-17.78,24.21,23.25-22.47,48.42-28.37,77.2-16.16-17.06,1.48-33.92,3.51-48.18,14.49,12.9-2.72,25.66-2.88,38.58-.17,12.91,2.7,24.04,8.58,34.13,17.03-10.56-2.34-21.28-2.15-31.99-2.96,16.58,5.5,31.37,15.26,48.42,19.47,1.19.29,2.91.21,3.52,1.86-1.58,2.17-4.22,1.9-6.57,2.83,5.43,3.97,11.09,7.35,16.75,10.74,1.71,1.02,3.68,1.73,4.49,3.81,16.12,8.1,32.33,16.06,46.92,26.92-21.79-7.32-44.48-12.14-65.28-24.35,9.32,12.12,19.8,21.69,32.79,28.52,17.99,9.46,37.29,16.21,54.81,26.63,6.18,3.67,12.66,6.89,18.02,11.94-28.95-12.88-61.15-17.59-88.75-35.88,7.56,11.68,17.48,19.85,28.75,26.42,15.45,9.01,32.06,15.84,47.23,25.42,15.57,9.83,27.93,22.68,37.94,38.18-22.58-20.83-51.05-27.16-79.83-32.94,31.79,17.41,61.08,37.31,74.9,73.15-14.82-21.8-34.21-37.92-59.94-48.83,31.36,31.22,46.96,53.07,51.47,72.2-14.82-9.16-31.24-13.16-46.79-19.97,2.31,2.15,4.53,4.4,6.94,6.43,8.68,7.3,15.89,16.02,23.52,24.33,1.03,1.12,2.82,2.34,2.18,3.99-.72,1.87-2.84.89-4.31.96-15.86.75-31.25-1.73-46.36-7.2,3.7,6.24,13.58,14.33,24.24,19.93,9.35,4.9,19.42,6.92,30.65,6.82-15.09,10.19-55.11,6.26-93.59-9,15.34,16.58,32.88,27.8,52.16,37.36-18.66,2.85-66.46-8.27-98.54-35.36,3.84,6.16,8.05,10.13,11.85,14.44,4.13,4.69,8.34,9.3,13.13,13.36,4.6,3.89,9.13,7.87,13.43,12.16-13.93-5.31-26.09-13.37-36.92-23.52Z"/><path class="bb" d="M360.59,290.92c19.69,13.99,33.66,32.16,40.37,55.57,4.45,15.55,4.37,31.43,3.17,47.35-2.19,28.96-8.38,56.98-21.8,82.91-8.43,16.29-19.17,31.22-29.73,46.21-15.79,22.39-31.4,44.91-47.14,67.33-6.16,8.77-14.16,15.94-21.09,24.04-10.81,8.9-22.16,16.96-35.45,22.13,14.53-12.4,28.46-25.34,39.84-40.82-14,11.57-29.53,20.36-46.49,26.65-16.86,6.26-34.31,9.59-52.42,10.52,16.68-10.17,33.4-20.22,47.2-34.25.29-1.03,1.05-1.82,1.55-3.02-.83,1.3-2.05,1.18-3.08,1.49-28.23,15.23-72.85,14.88-89.26,6.96,23.35-.53,41.78-9.97,56.63-26.92-16.65,5.33-33.54,8.17-52.16,6.63,10.2-14.27,22.58-25.53,34.88-37.08-15.41,7.84-32.75,11.19-48.55,21.87,10.07-29.44,27.67-51.83,49.62-71.28-24.22,10.01-43.38,26.05-57.58,48.09,12.85-37.25,44.17-55.47,77.3-74.02-34.75,8.67-58.06,11.31-82.24,32.67,6.62-13.62,24.52-30.3,43.79-41.37,14.32-8.22,29.86-14.08,43.87-22.83,9.97-6.23,18.66-13.92,25.28-24.08-26.45,18.87-59.22,21.53-88.23,34.31,2.95-1.97,5.85-4.02,8.86-5.87,3.26-2,6.61-3.86,9.95-5.73,16.36-9.14,34.07-15.43,50.76-23.91,14.42-7.32,26.82-16.93,37.42-31.52-21.54,13.14-45,16.49-66.6,25.09,11.98-9.34,25.16-16.52,38.96-22.61,2.57-1.13,5.02-2.51,7.53-3.77.77-1.19,1.72-2.26,2.99-2.87,8.04-3.87,15.35-8.93,22.11-13.45,1.49-.53.06-.92.65-.36.24.22.13.4-.34.48-3.62.67-7.32,1.62-9.29-2.93,10.89-1.65,20.52-6.77,30.42-11.13,6.74-2.97,13.44-6.05,21.57-9.72-12.02,1.15-22.54,2.15-32.73,3.12,13.32-13.35,42.97-24,74.81-15.48-15.31-11.92-33.01-14.01-52.22-14.5,17.85-11.33,54.12-12.83,79.83,15.4-8-18.7-21.88-31.24-41.5-36.39-19.2-5.04-37.64.34-55.68,7.16,17.26-16.66,38.2-21.26,61.1-19.61,9.1-.21,16.7,3.21,23.11,9.53Z"/><path class="aq" d="M664.59,603.34c0-1.17,0-2.35,0-3.52,19.09,16.97,27.63,30.17,30.2,46.49,3.78,24.05-1.15,46.63-13.11,67.38-22.03,38.2-56.02,58.05-99.43,63.04-20.06,2.31-39.4-1.51-58.44-6.54-22.49-5.94-44.46-5.28-66.73.7-25.99,6.98-52.37,9.71-78.64,1.85-45.1-13.51-76.09-41.68-88.48-88.11-3.83-14.35-3.93-29.03-.55-43.53,1.74-7.45,4.93-14.3,9.92-20.41,6.99-8.55,14.89-16.42,20.83-27.84-.93,8.03-4.32,13.78-4.34,20.24-.22.31-.29.65-.2,1.02.11,3.2-.39,6.27-1.26,9.4-5.69,20.51-7.76,40.95-.52,61.75,10.12,29.05,29.37,49.1,57.74,60.37,24.26,9.63,49.01,11.38,73.66,1.75,21.08-8.23,35.9-22.14,37.91-46.27.32-3.85.91-7.74-2.96-10.36-9.02-3.34-17.97-6.71-25.21-13.48-2.96-2.77-5.55-5.75-7.79-9.07-1.13-1.68-2.09-3.49-.79-5.56,2.24-1.93,5.46-2.52,7.78-5.83-9.22,1.43-17.84,1.69-26.36-.18-10.87-2.39-20.65-7.05-28.19-15.34-9.75-10.71-11.61-23.53-8.41-37.24,3.69-15.81,12.4-28.33,25.45-37.93-4.58,7.21-7.98,14.87-10.79,24.62,12.64-13.61,26.81-21.44,43.24-25.27,12.64-2.94,25.35-3.8,38.16-1.14,7.1,1.47,13.98-1.04,21-1.32,26.99-1.1,49.99,7.31,69.18,27.78-2.87-9.36-6.15-17.62-12.31-25.24,20.96,12.05,33.13,42.97,25.75,63.78-5.9,16.64-19.78,22.9-35.11,27.19-8.27,2.31-16.72,1.66-25.3.56,1.11,3.5,5.37,3.79,6.98,6.71-1.37,7.58-7.31,11.7-12.73,15.88-5.73,4.42-12.42,7.36-19.34,9.61-1.84.6-4.11.54-4.9,2.92-1.67,26.76,12.76,47.71,40.89,56.44,34.99,10.87,67.72,4.52,96.46-17.93,23.1-18.05,35.36-42.61,36.88-72.04.58-11.17-2.44-22-5.18-32.77-.89-3.5-1.86-6.96-1.31-10.62.1-4.38-3.36-7.66-3.65-11.92Z"/><path class="p" d="M480.61,689.16c3.35-.51,4.04,1.4,4.17,4.24.88,18.31-4.77,33.88-19.92,44.86-28.86,20.91-60.2,21.46-92.33,9.46-34.54-12.91-55.79-38.01-63.55-73.97-3.72-17.24-.98-34.42,3.76-51.24.8-2.84,1.91-5.6,2.87-8.4,7.27,1.56,6.45,6.52,5.67,12.15-1.7,12.16-1.03,24.3,2.27,36.29.1-13.56.41-26.99,8.11-39.17-2.77,21.75-4.28,43.19,13.5,60.05-3.01-5.88-5.85-11.88-6.79-18.67,6.53,12.94,15.43,24.08,25.48,34.51-9.33-3.42-16.69-9.56-24.97-16.25,1.27,6.23,4.69,10,7.89,13.61,15.08,16.94,34.57,26.9,56.12,32.09,11.45,2.76,23.54.36,35.01-3.11,3.92-4.02,9.81-4.01,14.26-7.28,8.53-6.27,15.32-14.11,22.04-22.1,1.34-1.59.32-2.52-1.27-3.06-.77-.11-1.54-.23-2.31-.34,2.25-4.16,6.22-3.64,9.98-3.67Z"/><path class="bq" d="M668.24,615.26c14.73,41.03,9.57,78.21-21.64,110.14-14.52,14.85-32.58,23.58-52.69,27.66-20.92,4.24-41.6,3.21-61.35-5.97-21.07-9.8-35.91-27.7-33.73-56.43,3.17-1.56,5.27.04,7.09,2.42.02,1.53.92,2.18,2.33,2.33,7.49,12.46,19.83,19.05,31.72,26.18,1.54.92,3.37,1.38,4.52,2.9,17.68,7.62,35.18,6.2,52.6-.96,16.06-6.6,29.96-16.21,41.45-29.3,2.81-3.2,4.83-6.77,6.44-10.38-1.56-2.91-3.53,5.43-4.7-.6l-.07.07c7.17-6.81,9.89-15.89,11.99-25.01,2.12-9.22,2.23-18.68.35-28.08-.26-1.28-.04-2.67-.04-5.52,7.77,12.39,8.28,24.38,6.31,36.83,4.85-10.78,5.04-22.06,3.99-33.49-.02-.2-.13-.38-.17-.58-1.24-5.49-2.85-11.16,5.59-12.22Z"/><path class="aw" d="M87.97,631.16c-7.06,18.23-10.95,37-9.44,56.64.48,6.2,1.31,12.37,1.98,18.45-9.5-12.62-18.3-49.16-10.61-87.22-5.63,7-10.34,13.71-13,21.81-1.27-14.37.27-28.47,3.88-42.23,5.8-22.14,10.82-44.58,21.9-64.96.7-1.28.96-2.64.52-4.08,1.14-2.07,2.73-3.74,4.6-5.17.18.16.36.32.54.48.83,4.1-.68,8.97,5.1,11.29,1.5.6-.92,3.97-1.99,5.73-4.21,6.86-8.06,13.85-10.74,21.49-3.41,9.72-2.06,19.61-1.66,29.61,12.66-18.05,20.27-39.28,37.73-53.87-3.03,5.21-6.46,10.23-9,15.67-8.6,18.42-15.78,37.41-19.01,57.54-.97,6.06-3.47,12.45-.78,18.83Z"/><path class="ba" d="M899.28,528.52c-1.98,2.64.51,4.4,1.43,6.29,12.49,25.76,19.5,53.13,24.12,81.23,1.32,8,1.51,16.04.87,25.24-3.19-8.31-6.82-15.25-13.24-21.88,7.1,31.11,4.06,59.91-10,87.39.17-8.6,1.99-17.04,1.86-25.67-.13-8.68-.47-17.27-2.06-25.85-1.62-8.74-4.57-17.03-7.58-25.33,1.94-1,2.06-2.49,1.8-4.56-2.96-23.49-8.79-46.15-19.36-67.42-2.75-5.53-6.02-10.81-8.4-16.61,14.89,15.67,24.06,35.11,35,54.1,2.16-19.48,0-37.26-12.12-52.87-4.88-6.28-4.78-6.6,1.81-10.71,3.04-1.89,2.39-3.9,1.01-6.05-2.58-4.04-5.38-7.94-7.67-12.26,4.83,4.43,9.66,8.84,12.53,14.96Z"/><path class="w" d="M865.46,650.63c-2.64.74-1.12,2.52-.72,3.69,9.67,28.86,5.99,56.74-6.59,83.75-7.31,15.69-15.75,30.8-26.69,44.35-.95,1.17-1.95,2.3-4.1,4.81,9.97-25.04,10.75-49.19,6.86-73.73.64.06,1.88.93,1.73-.39-1.82-16.42.26-33-1.99-49.4-1.1-8.05-2.19-16.11-2.75-24.29,12.79,26.71,25.57,53.39,24.3,84.3,8.15-33.4,1.8-66.06-3.18-99.16,4.37,8.69,8.74,17.38,13.12,26.07Z"/><path class="an" d="M148.53,713.51c-.78,10.64-1.84,21.28-1.5,31.97.41,12.91,2.37,25.57,5.65,38.51-2.1-2.87-4.26-5.71-6.28-8.63-2.06-2.98-4.09-5.99-5.97-9.09-11.28-18.66-21.57-37.71-24.97-59.71-2.73-17.7-3.46-35.21,2.56-52.48.55-1.57,2.53-3.51.5-5.5,4.32-8.74,8.64-17.48,12.96-26.22.52.14,1.03.28,1.55.42-3.51,16.86-7.55,33.59-8.92,50.82-1.4,17.54-1.67,34.87,2.74,52.36.5-31.01,9.95-59.36,25.23-86.12-.92,8.77-2.04,17.52-2.72,26.31-1.18,15.24-2.47,30.49-1.67,45.81.03.53.55,1.04.85,1.55Z"/><path class="r" d="M236.83,742.59c-1.26,38.2,10.69,72.8,29.63,106.37-19.93-11.24-35.09-25.96-46.68-44.42.69-.47,1.31-1.05,1-1.96-6.42-18.67-6.18-38.04-5.44-57.34.83-21.35,4.6-42.27,12.01-62.42.35-.95.53-1.95,2.28-2.22-4.1,25.97-7.07,51.79,5.56,77.25,1.08-5.57-.8-10.68,1.63-15.26Z"/><path class="bg" d="M761.13,809.11c-11.08,16.51-25.95,28.86-43.09,38.98,5.19-9.68,10.1-19.44,14.03-29.66,6.52-16.97,11.54-34.32,13.73-52.43.12-.96.67-1.87,1.02-2.81,5.69-6.95,7.32-15.46,8.38-23.92,2.29-18.22,2.5-36.47-.92-54.64-.1-.53.24-1.14,1.47-2.09,1.86,5.46,4.13,10.81,5.51,16.38,5.77,23.31,8.52,47,7.28,71.01-.6,11.46-3.64,22.53-6.66,33.57-.48,1.75-2.31,3.51-.74,5.6Z"/><path class="ax" d="M215.02,796.25c-9.59-15.62-13.76-33.11-18.06-50.72-1.09,22.89-1.76,45.74,5.77,68.01-22.54-27.5-25.15-60.52-26.1-94,.77-.04,1.7-2.8,2.22-.13.75,3.92.94,7.94,1.42,11.91.18,1.45-.58,3.64,1.91,3.67,2.03.03,2.44-1.69,2.67-3.4,2.05-15.6,5.86-30.71,12.1-45.2,2.16-5.01,5.18-9.44,8.07-14.07-.41,7.37-2.91,14.3-3.48,21.65-1.49,19.12-1.8,38.12,2.07,57.02,2.74,13.37,6.48,26.45,11.09,39.29.7,1.95.66,3.95.32,5.96Z"/><path class="z" d="M804.72,735.31c1.23,29.6-9.46,64.19-26.05,81.74,9.06-24.13,8.34-47.82,7.48-71.64-3.95,16.54-7.54,33.17-16,48.15-2.98-4.39.8-7.91,2.02-11.39,7.4-21.14,13.13-42.62,11.93-65.18-.72-13.53-1.85-27.14-5.36-40.37-.25-.93-.24-1.94.2-3.14,4.65,6.33,7.83,13.41,10.78,20.58,3.13,7.61,4.86,15.66,6.97,23.6,2.03,7.65,2.88,15.55,4.92,23.77,2.94-1.76,1.31-4.77,3.11-6.12Z"/><path class="w" d="M175.16,711.08c-4.31,17.59-7.07,35.35-5.74,54.99-4.03-6.43-5.34-12.44-7.15-18.17-4.75-15.04-7.33-30.48-7.43-46.3,0-1.65.78-3.69-1.32-4.84.03-2,.91-3.03,2.14-.91.82,1.41.48,3.5.59,4.64,5.65-16.05,11.79-32.44,21.19-47.53-.85,6.62-1.64,13.25-2.56,19.86-1.7,12.22-.72,24.48-.57,36.73,0,.52.56,1.03.85,1.54Z"/><path class="bs" d="M826.56,697.75c2.33,23.07-5.1,52.24-13.1,67.6,1.05-20.04-.72-38.68-5.55-57.71-.73,1.67-1.18,2.7-1.63,3.73-.35-3.13-1.33-6.25,2.66-8.26,1.59-.8.77-3.36.83-5.13.44-14.1-.75-28.06-3.53-41.9-.15-.74-.27-1.56,1.47-2.57,4.32,9.89,8.61,19.68,12.89,29.49,2.12,4.86,2.61,10.39,5.98,14.75Z"/><path class="af" d="M114.67,655.4c-8.77,12.27-14.57,25.74-16.36,40.81-.35,2.98-.53,5.98-1.27,8.92-8.25-30.23-1.82-59.01,9.14-87.33.86,12.98,6.19,24.95,8.49,37.6Z"/><path class="bk" d="M918.8,519.72c9.23,15.2,13.08,32.12,15.61,49.43.56,3.81,1.98,7.62.79,13.17-6.09-18.46-17.78-31.72-28.64-45.52,2.98-3.72.7-7.32-.59-10.68-2.69-7.01-5.83-13.85-8.97-21.17,2.22.07,3,1.56,3.99,2.56,5.15,5.22,11.33,8.92,17.8,12.21Z"/><path class="aj" d="M505.92,693.08c-2.36-.81-4.73-1.61-7.09-2.42-.02-.93.47-1.41,1.36-1.63,15.54-3.83,28.37-11.65,37.3-25.24,7.52.7,14.76,3.51,22.63,1.53,6.1-1.53,11.66-3.95,17.26-6.59-19.98,19.36-42.69,33.08-71.45,34.36Z"/><path class="ah" d="M73.39,540.31c-10.07,12.78-19.98,25.66-26.17,41.02,2.53-24.78,7.97-48.67,21.39-70.15.35,2.35.14,5.15,3.05,5.98,2.86.82,4.35-1.64,5.97-3.33,3.23-3.35,4.89-8.1,9.69-10.29-7.42,10.15-8.57,22.69-13.67,33.68-.51,1.09-1.55,1.94-.26,3.09Z"/><path class="n" d="M877.77,621.2c9.69,27.05,15.69,54.49,8.56,84.9-1.71-20.58-8.93-37.51-19.53-53.16,4.14-6.83,5.64-14.66,7.96-22.12.99-3.19,2.4-6.3,3.01-9.62Z"/><path class="ay" d="M480.61,689.16c-3.33,1.23-6.65,2.45-9.98,3.67-25.72-3.02-46.01-16.24-64.02-33.97,12.79,7.2,25.91,9.48,39.79,3.76,4.64,11.88,14.38,18.19,25.36,23.09,2.89,1.29,5.9,2.31,8.85,3.45Z"/><path class="br" d="M623.29,278.84c-3.66.45-5.91,3.63-9.58,5.13.88-7.06,6.87-10.59,9.54-16.05,21.13-16.84,58.9-9.59,75.49,6.31-5.62-1.27-10.25-2.45-14.94-3.36-12.46-2.41-24.95-3.73-37.47-.34-7.35,3.69-15,6.56-23.04,8.31Z"/><path class="aq" d="M360.41,268.48c3.33,4.48,8,8.18,8.94,14.91-2.08-1.01-3.57-1.73-5.05-2.45-10.41-4.22-21.35-7.01-31.66-11.52-16.32-2.67-32.1.48-48.72,5.27,18.73-17.42,54.73-23.12,76.49-6.21Z"/><path class="bj" d="M472.94,693.18c5.51-.5,3.42,2.62,1.85,4.53-10.05,12.23-19.89,24.81-36.88,27.91-2.4-4.55-6.24-2.06-9.43-1.74-14.53,1.46-28.59.58-41.5-7.4,9.43,2.04,18.95,2.27,28.49,1.89,18.71-.74,35.8-6.49,50.97-17.43,2.6-1.88,5.82-3.95,6.51-7.76Z"/><path class="d" d="M544.5,724.49c-8.78-1.65-15.24-7.61-22.3-12.33-4.11-2.74-7.47-6.59-11.26-9.83-2.19-1.87-3-4.15-2.69-6.93,9.65,6.41,19.27,12.65,30.38,16.64,17.64,6.34,35.4,8.06,53.72,4.29.95-.2,1.94-.25,3.31-.41-3.04,2.56-11.91,6.38-17.39,7.09-10.34,1.33-20.71,2.53-31.12.49-1.09-.21-1.96.15-2.66.98Z"/><path class="ah" d="M719.7,336.07c15.47-1.6,41.82,16.79,48.77,34.45-5.98-5.1-10.93-11.36-17.58-15.73-2.99-1.97-5.39-5.97-8.03.31-.9,2.13-2.74,1.12-3.96-.08-6.22-6.11-11.12-13.46-19.2-18.95Z"/><path class="an" d="M928.45,511.34c-6.07-6.05-12.14-12.1-18.21-18.15,3.85-2.12,1.2-4.62.04-6.52-3.13-5.12-5.75-10.55-9.86-15.11-3.97-4.41-7.37-9.33-10.64-14.3,18.94,13.64,32.61,31.1,38.67,54.08Z"/><path class="bf" d="M263.9,335.49c-7.63,6.18-14.15,12.54-20.12,19.44-1.32,1.53-3.15,2.36-4.21-.27-2.07-5.12-4.59-2.07-6.91-.45-6.55,4.58-11.77,10.69-18.4,16.77,6.23-15.15,33.48-36.55,49.65-35.5Z"/><path class="ar" d="M332.64,269.42c11.27,1.88,22.13,4.85,31.66,11.52.29,3.9-2.84,6.52-3.71,9.99-7.26-4.25-15.08-7.15-23.11-9.53-.3-4.52-1.35-8.74-4.83-11.97Z"/><path class="bh" d="M623.29,278.84c7.15-4.24,14.76-7.22,23.04-8.31.35,3.61,1.7,7.12,1.21,10.83-8.56,2.02-16.66,5.21-24.3,9.58-.69-.21-2.07-.62-1.3-1.25,4.01-3.28,2.85-7,1.35-10.85Z"/><path class="k" d="M68.86,495.69c-3.4,3.91-6.9,7.72-11,10.92-.34-.92-.92-1.76-.42-2.85,4.7-10.18,9.36-20.44,16.95-28.85,4.99-5.53,9.07-12.16,16.79-15.57.28,2.78-1.76,3.74-2.94,5.1-7.87,9.08-14.25,19.15-19.8,29.76-.17.33.27.98.42,1.49Z"/><path class="ak" d="M251.87,362.54c3.15,2.21,7.08,1.56,10.72,2.67-8.35,6.8-16.87,12.81-26.84,16.46-3.63-3.09-3.05-6.19.18-9.05,2.08-1.84,4.22-3.77,6.67-4.98,3.17-1.57,6.43-2.93,9.27-5.1Z"/><path class="g" d="M746.64,380.88c-9.18-3.71-16.81-9.91-25.85-15.61,4.33-.69,7.76-1.23,11.18-1.77,5.82,1.29,10.42,4.83,15,8.3,5.72,4.34,5.58,5.77-.34,9.08Z"/><path class="bi" d="M637.72,658.46c2.27,14.65-12.5,33.03-31.11,36.88,15.11-9.79,24.96-21.77,31.11-36.88Z"/><path class="p" d="M345.44,656.26c5.89,17.22,16.66,28.92,30.35,38.24-15.07-1.43-32.02-22.23-30.35-38.24Z"/><path class="bm" d="M835.17,289.78c2.73,2.1,5.3,4.37,7.21,7.28-1.79-.16-3.78.12-5.33-.57-5.85-2.63-11.47-5.76-17.33-8.36-5.72-2.54-11.62-4.66-17.31-7.47,7.96-.61,15.5.52,22.6,4.55,3.21,1.82,5.73,5.38,10.15,4.58Z"/><path class="o" d="M787.95,209.65c1.24,2.88,2.47,5.75,3.71,8.63-3.65.12-6.43-1.9-9.24-3.8-5.28-3.57-10.38-7.44-16.54-9.45-1.12-.36-2.68-.56-2.43-2.05.25-1.55,1.65-1.15,2.9-1.02,7.82.85,15.18,2.93,21.61,7.68Z"/><path class="ai" d="M139.01,298.26c3.58-3.69,7.16-7.38,10.74-11.07,2.65,2.8,4.36-.43,6.18-1.22,7.1-3.09,14.2-5.8,22.25-4.88-13.62,4.55-25.9,12-39.16,17.18Z"/><path class="at" d="M128.4,376.77c8.14-12.73,26.2-25.73,39.81-29.03-13.9,10.13-26.85,19.58-39.81,29.03Z"/><path class="aa" d="M640.28,683.25c-2.29.15-2.63,2.21-3.6,3.66-4.48,6.72-10.54,11.14-18.62,12.77,10.98-9.05,19.95-19.61,26.13-33.46,1.59,7.12-3.67,11.49-3.99,17.1,0,0,.07-.07.07-.07Z"/><path class="bc" d="M816.47,348.27c15.5,5.4,27.33,15.94,38.24,27.77-13.63-8.02-25.95-17.86-38.24-27.77Z"/><path class="bp" d="M770.44,340.61c-12.14-8.88-25.5-15.03-39.78-19.34-1.12-.34-2.65-.52-2.36-2.08.27-1.43,1.72-1.62,2.93-1.27,14.97,4.29,28.15,11.72,39.21,22.69Z"/><path class="p" d="M193.12,215.72c.51-2.8,4.24-3.83,3.92-7.09,6.45-5.2,14.15-6.18,22.06-6.67-6.93,4.44-14.12,8.24-20.74,12.99-1.6,1.15-3.43.93-5.24.77Z"/><path class="ah" d="M348.89,107.36c-9.95-4.07-20.6-4.1-31.13-5.73,6.84-6.17,23.69-3.25,31.13,5.73Z"/><path class="ab" d="M256.86,319c-15.37,4.25-28.72,12.23-41.8,21.58,5.58-10.19,32.27-24.1,41.8-21.58Z"/><path class="ab" d="M667.27,101.88c-12.53.02-22.95,2.58-33.8,6.11,7.62-8.94,21.04-11.63,33.8-6.11Z"/><path class="aw" d="M87.79,524.4c1.83-4.71,5.5-7.9,9.12-11.13-1.38,5-4.92,8.35-8.58,11.62-.18-.16-.36-.32-.54-.48Z"/><path class="bo" d="M882.49,428.9c-.34.37-.68.75-1.02,1.12-3.21-1.97-6.42-3.94-9.63-5.92,4.26.21,7.59,2.23,10.65,4.8Z"/><path class="t" d="M235.51,597.03c2.01-1.43,4.01-2.86,7.33-5.23-2.08,3.66-3.45,5.64-5.81,6.76-.51-.51-1.02-1.02-1.53-1.53Z"/><path class="bn" d="M337.62,71.58h-7.03c-.05-.19-.09-.38-.14-.57,2.78-.51,5.55-1.03,8.33-1.54-.39.7-.77,1.41-1.16,2.11Z"/><path class="ap" d="M776.91,95.11c3.61-27.62,17.8-43.35,39.95-48.69-17.05,14.52-29.35,30.87-39.95,48.69Z"/><path class="az" d="M167.54,46.7c23.01,3.78,39.83,30.37,38.67,48.01-10.18-18.5-22.94-33.76-38.67-48.01Z"/><path class="ad" d="M806.27,92.75c6.25-21.64,26.55-31.83,51.67-31.63-9.85,4.18-18.97,7.69-26.97,13.23-8.05,5.59-15.75,11.69-24.7,18.4Z"/><path class="ad" d="M125.6,61.49c23-2.07,42.55,9.48,51.93,31.44-17.8-11.44-31.73-26.73-51.93-31.44Z"/><path class="h" d="M780.44,45.93c-11.12,12.28-22.4,21.84-36.17,28.06-1.15.52-2.43,1.57-4.34.57,9.01-15.43,22.99-23.49,40.5-28.64Z"/><path class="ac" d="M204.81,46.21c17.15,3.93,29.65,12.9,38.15,28.47-15.94-5.38-27.74-15.3-38.15-28.47Z"/><path class="ao" d="M632.93,860.04c-.89-4.85,2.88-7.9,4.79-11.52,9.36-17.76,19.22-35.26,24.82-54.71.15-.54.63-.98.99-1.52,1.14,4.92,1.32,7.54-2.14,16.39-5.31,13.6-10.88,27.15-19.94,38.88-1.7,2.2-3.14,4.65-3.73,7.46-1.6,1.68-3.2,3.35-4.8,5.03Z"/><path class="au" d="M76.72,132.47c-6.81,11.2-15.53,19.54-26,26.66.14-11.26,10.74-22.15,26-26.66Z"/><path class="b" d="M906.37,131.83c11.11,2.26,25.69,15.36,26.35,26.29-6.22-1.89-17.12-12.76-26.35-26.29Z"/><path class="v" d="M920.06,261.44c6.19-12.62,10.22-25.42,12.6-39,6.67,10.64-.63,33.73-12.6,39Z"/><path class="au" d="M55.46,198.43c-2.91-12.67,7.03-29.11,18.47-30.46-7.61,9.74-12.74,20.25-18.47,30.46Z"/><path class="s" d="M926.6,199.37c-2.94-10.64-9.6-19.27-14.92-28.61-.47-.83-1.43-1.59-.68-2.65.56-.79,1.42-.53,2.19-.26,8.98,3.15,17.22,21.34,13.41,31.52Z"/><path class="ae" d="M852.45,97.9c0-8.41,6.94-16.75,14.1-17.58,2.99-.34,3.89.48,2.67,3.71-2.92,7.74-9.21,11.09-16.77,13.87Z"/><path class="bl" d="M62.78,262.63c-11.29-7.31-18.65-28.51-12.57-40.05,1.78,14.2,6.13,27.06,12.57,40.05Z"/><path class="ac" d="M112.22,79.11c8.72,2.21,14.84,5.83,17.7,13.59.57,1.54,1.2,3.35.05,4.59-1.49,1.61-2.99-.14-4.21-.88-6.33-3.84-11.18-8.91-13.54-17.3Z"/><path class="ag" d="M907.26,252.3c4.7-9.3,8.16-19.11,12.75-28.42.76,11.66-2.79,21.45-12.75,28.42Z"/><path class="ag" d="M75.28,252c-11.04-7.34-15.71-19.27-11.91-29.56,3.13,10.13,6.8,19.54,11.91,29.56Z"/><path class="y" d="M902.44,187.43c6.86,10.66,7.35,21.7,1.13,33.11.63-5.54,1.22-11.13.38-16.65-.83-5.45-2.16-10.83-3.28-16.24.59-.08,1.18-.15,1.76-.23Z"/><path class="as" d="M77.94,218.42c-5.65-12.34-2.43-22.26,4.45-31.69-2.95,9.96-2.3,20.4-4.45,31.69Z"/><path class="be" d="M390.93,806c-7.01-5.12-13.91-10.21-21.29-17.68,6.55,2.54,11.31,4.79,16.31,6.27,20.45,6.05,40.91,4.49,61.36-.32,18.29-4.3,36.83-6.49,55.66-5.6,12.92.61,25.37,3.94,37.92,6.64,23.56,5.06,46.64,4.66,69.11-4.98.1-.04.32.19,1.1.69-3.85,5.08-9.58,7.99-13.92,12.47,8.49-1.16,14.25-7.76,21.67-10.9,1.42,2.29-.23,3.28-1.09,4.53-8.22,11.95-19.59,20.12-32.27,26.61-6.58,3.37-11.78,8.36-17.1,13.28-6.61,6.11-13.27,12.15-20.6,17.82,2.99-6.65,7.06-12.76,7.81-21.53-11.08,10.06-21.6,19.08-36.12,23.17,3.67-6.96,9.04-12.18,10.45-20.94-7.84,7.94-16.94,11.94-25.31,17.13-8.82,5.47-16.64,5.12-25.11-.03-9.16-5.56-19.27-9.69-26.47-18.3,2.22,7.72,6.18,14.46,10,21.45-14.25-4.59-25.54-13.05-35.85-25.2,2.19,9.44,5.11,16.98,9.6,24.37-3.28-2.27-7.02-4.08-9.76-6.87-13.62-13.88-29.08-25.19-45.64-35.32-7.89-4.83-14.12-12.09-17.86-21.13,9.3,4.66,17.56,10.98,27.4,14.37Z"/><path class="al" d="M350.37,856.5c-18.19-18.26-29.06-40.02-31.45-65.79,8.02,23.1,19.9,44.35,31.45,65.79Z"/><path class="i" d="M424.28,374.23c-5.92-20.89-11.94-41.6-19.62-61.8,15.08,17.94,18.54,39.57,19.62,61.8Z"/><path class="m" d="M558.52,376.71c1.63-21.5,4.6-42.72,18.26-60.67-6.54,20.05-12.63,40.23-18.26,60.67Z"/><path class="x" d="M614.87,442.99c7.26,25.57,28.48,38.25,50.34,30.65,16.5-5.74,31.62-24.8,17.7-55.23,11.11,5.6,20.41,26.93,12.3,45.49-7.97,18.23-32.1,28.5-52.64,21.89-17.8-5.73-31.68-26.45-27.68-42.79Z"/><path class="e" d="M662.47,423.87c-.42,7.22-6.1,12.41-13.19,12.07-7.1-.35-12.31-6.18-11.82-13.24.43-6.29,6.77-11.81,13.21-11.53,6.91.3,12.2,5.99,11.8,12.7Z"/><path class="l" d="M617.54,412.71c7.59-14.28,19.96-21.72,35.79-23.28,17.84-1.75,32.36,4.83,43.47,18.94-11.83-9.63-25.22-15.05-40.59-14.43-15.52.63-27.95,7.86-38.67,18.76Z"/><path class="q" d="M669,497.68c13.74-4.45,26.2-10.09,35.76-20.77-1.49,11.85-22.93,24.11-35.76,20.77Z"/><path class="e" d="M301.59,416.35c-8.42,16.73-10.42,32.24.89,46.56,9.02,11.41,21.77,15.16,35.79,11.85,16.31-3.85,26.14-14.73,30.17-30.86,4.34,10.56-4.17,31.56-23.38,40.44-18.63,8.62-44.12.84-54.86-16.53-10.02-16.21-5.73-37.12,11.38-51.46Z"/><path class="bt" d="M321.54,423.51c-.09-6.89,5.19-12.41,11.9-12.44,6.52-.03,12.6,5.6,12.81,11.88.23,7.06-5.17,12.97-12.06,13.18-6.55.21-12.56-5.79-12.65-12.62Z"/><path class="l" d="M366.84,413.75c-25.54-24.35-43.97-25.72-78.48-6.81,15.13-23.12,60.71-26.26,78.48,6.81Z"/><path class="j" d="M315.92,497.9c-16.48,2.16-31.9-6.43-38.15-21.16,10.7,11.27,22.85,17.43,38.15,21.16Z"/><path class="c" d="M517.06,598.98c-.49-4.19-2.56-3.75-6.14-1.99-12.93,6.38-26.01,5.58-38.97-.26-3.89-1.75-3.91-1.71-5.21,2.08-16.7-11.03-33.84-9.46-51.31-1.73,4.85-7.03,14.21-12.33,26.7-15.42,14.14-3.5,28.41-2.8,42.63-1.11,8.33.99,16.48-.1,24.67-.9,17.37-1.7,34.12-.31,49.53,8.86,3.67,2.18,7.01,4.68,9.99,8.91-17.92-8.15-35.02-9.53-51.89,1.58Z"/><path class="bl" d="M410.33,617.03c.93-4.56,3.73-5.34,6.26-6.3,12.63-4.75,24.54-2.12,35.88,4.03,7.92,4.3,15.47,9.28,23.31,13.73,9.66,5.49,19.65,5.51,29.44.53,9.5-4.83,18.57-10.54,28.17-15.16,10.31-4.95,21.09-8.24,32.53-3.23,2.53,1.11,5.37,1.82,6.56,6.33-8.42-5.83-16.77-5.64-25.62-4.31-10.18,1.53-18.34,6.82-26.65,12.07-4.94,3.12-9.79,6.36-15.21,8.62-13.66,5.7-25.9,1.92-37.64-5.58-7.6-4.86-14.72-10.57-23.47-13.44-11.14-3.66-22.05-4.07-33.56,2.72Z"/><path class="bd" d="M457.73,797.6c22.35-6.94,44.76-9.51,67.19.18-7.38-.58-14.8-.42-22.16-.87-7.42-.46-14.72-.56-22.17-.07-7.58.49-15.12,2.52-22.85.76Z"/></svg>